<svg xmlns="http://www.w3.org/2000/svg" width="1120" height="770" viewBox="0 0 1120 770"><rect width="1120" height="770" fill="white"/><g font-family="Malgun Gothic, Arial, sans-serif"><text x="24" y="37" fill="#19324b" font-size="26" text-anchor="start">산점도는 방향과 형태를 함께 보여준다</text><text x="24" y="65" fill="#52667c" font-size="16" text-anchor="start">합성 자료 · 축과 단위 → 방향 → 형태 → 흩어짐 → 특이점</text><rect x="20" y="86" width="530" height="310" rx="16" fill="#f5f8fc"/><text x="40" y="114" fill="#19324b" font-size="20" text-anchor="start">Positive</text><path d="M78.0,131V338 M78,338.0H532" stroke="#dce5ef" stroke-width="1"/><text x="78.0" y="364" fill="#19324b" font-size="13" text-anchor="middle">-0.1</text><text x="70" y="343.0" fill="#19324b" font-size="13" text-anchor="end">0.4</text><path d="M191.5,131V338 M78,286.25H532" stroke="#dce5ef" stroke-width="1"/><text x="191.5" y="364" fill="#19324b" font-size="13" text-anchor="middle">2.7</text><text x="70" y="291.25" fill="#19324b" font-size="13" text-anchor="end">5.8</text><path d="M305.0,131V338 M78,234.5H532" stroke="#dce5ef" stroke-width="1"/><text x="305.0" y="364" fill="#19324b" font-size="13" text-anchor="middle">5.5</text><text x="70" y="239.5" fill="#19324b" font-size="13" text-anchor="end">11.3</text><path d="M418.50000000000006,131V338 M78,182.75000000000003H532" stroke="#dce5ef" stroke-width="1"/><text x="418.50000000000006" y="364" fill="#19324b" font-size="13" text-anchor="middle">8.3</text><text x="70" y="187.75000000000003" fill="#19324b" font-size="13" text-anchor="end">16.8</text><path d="M532.0,131V338 M78,131.0H532" stroke="#dce5ef" stroke-width="1"/><text x="532.0" y="364" fill="#19324b" font-size="13" text-anchor="middle">11.1</text><text x="70" y="136.0" fill="#19324b" font-size="13" text-anchor="end">22.2</text><text x="285.0" y="387" fill="#19324b" font-size="17" text-anchor="middle">X</text><text x="30" y="135" fill="#19324b" font-size="14" text-anchor="start">Y</text><circle cx="121.93548387096774" cy="317.9677419354839" r="5.5" fill="#2864b4" stroke="white" stroke-width="1.4"/><circle cx="162.61648745519713" cy="313.2252565982405" r="5.5" fill="#2864b4" stroke="white" stroke-width="1.4"/><circle cx="203.29749103942652" cy="282.8733504398827" r="5.5" fill="#2864b4" stroke="white" stroke-width="1.4"/><circle cx="243.9784946236559" cy="256.31543255131965" r="5.5" fill="#2864b4" stroke="white" stroke-width="1.4"/><circle cx="284.65949820788535" cy="254.4184384164223" r="5.5" fill="#2864b4" stroke="white" stroke-width="1.4"/><circle cx="325.3405017921147" cy="224.06653225806454" r="5.5" fill="#2864b4" stroke="white" stroke-width="1.4"/><circle cx="366.02150537634407" cy="212.68456744868038" r="5.5" fill="#2864b4" stroke="white" stroke-width="1.4"/><circle cx="406.7025089605735" cy="181.38416422287392" r="5.5" fill="#2864b4" stroke="white" stroke-width="1.4"/><circle cx="447.3835125448029" cy="175.69318181818184" r="5.5" fill="#2864b4" stroke="white" stroke-width="1.4"/><circle cx="488.06451612903226" cy="151.03225806451613" r="5.5" fill="#2864b4" stroke="white" stroke-width="1.4"/><rect x="570" y="86" width="530" height="310" rx="16" fill="#f5f8fc"/><text x="590" y="114" fill="#19324b" font-size="20" text-anchor="start">Negative</text><path d="M628.0,131V338 M628,338.0H1082" stroke="#dce5ef" stroke-width="1"/><text x="628.0" y="364" fill="#19324b" font-size="13" text-anchor="middle">-0.1</text><text x="620" y="343.0" fill="#19324b" font-size="13" text-anchor="end">-22.1</text><path d="M741.5,131V338 M628,286.25H1082" stroke="#dce5ef" stroke-width="1"/><text x="741.5" y="364" fill="#19324b" font-size="13" text-anchor="middle">2.7</text><text x="620" y="291.25" fill="#19324b" font-size="13" text-anchor="end">-16.4</text><path d="M855.0,131V338 M628,234.5H1082" stroke="#dce5ef" stroke-width="1"/><text x="855.0" y="364" fill="#19324b" font-size="13" text-anchor="middle">5.5</text><text x="620" y="239.5" fill="#19324b" font-size="13" text-anchor="end">-10.7</text><path d="M968.5,131V338 M628,182.75000000000003H1082" stroke="#dce5ef" stroke-width="1"/><text x="968.5" y="364" fill="#19324b" font-size="13" text-anchor="middle">8.3</text><text x="620" y="187.75000000000003" fill="#19324b" font-size="13" text-anchor="end">-5.0</text><path d="M1082.0,131V338 M628,131.0H1082" stroke="#dce5ef" stroke-width="1"/><text x="1082.0" y="364" fill="#19324b" font-size="13" text-anchor="middle">11.1</text><text x="620" y="136.0" fill="#19324b" font-size="13" text-anchor="end">0.7</text><text x="835.0" y="387" fill="#19324b" font-size="17" text-anchor="middle">X</text><text x="580" y="135" fill="#19324b" font-size="14" text-anchor="start">Y</text><circle cx="671.9354838709678" cy="151.0322580645161" r="5.5" fill="#2864b4" stroke="white" stroke-width="1.4"/><circle cx="712.6164874551971" cy="182.78629032258064" r="5.5" fill="#2864b4" stroke="white" stroke-width="1.4"/><circle cx="753.2974910394265" cy="190.04435483870967" r="5.5" fill="#2864b4" stroke="white" stroke-width="1.4"/><circle cx="793.9784946236559" cy="200.93145161290323" r="5.5" fill="#2864b4" stroke="white" stroke-width="1.4"/><circle cx="834.6594982078853" cy="235.40725806451616" r="5.5" fill="#2864b4" stroke="white" stroke-width="1.4"/><circle cx="875.3405017921148" cy="242.66532258064518" r="5.5" fill="#2864b4" stroke="white" stroke-width="1.4"/><circle cx="916.0215053763441" cy="268.06854838709677" r="5.5" fill="#2864b4" stroke="white" stroke-width="1.4"/><circle cx="956.7025089605735" cy="274.4193548387097" r="5.5" fill="#2864b4" stroke="white" stroke-width="1.4"/><circle cx="997.3835125448029" cy="305.2661290322581" r="5.5" fill="#2864b4" stroke="white" stroke-width="1.4"/><circle cx="1038.0645161290322" cy="317.9677419354839" r="5.5" fill="#2864b4" stroke="white" stroke-width="1.4"/><rect x="20" y="416" width="530" height="310" rx="16" fill="#f5f8fc"/><text x="40" y="444" fill="#19324b" font-size="20" text-anchor="start">Curved</text><path d="M78.0,461V668 M78,668.0H532" stroke="#dce5ef" stroke-width="1"/><text x="78.0" y="694" fill="#19324b" font-size="13" text-anchor="middle">-0.1</text><text x="70" y="673.0" fill="#19324b" font-size="13" text-anchor="end">-3.0</text><path d="M191.5,461V668 M78,616.25H532" stroke="#dce5ef" stroke-width="1"/><text x="191.5" y="694" fill="#19324b" font-size="13" text-anchor="middle">2.7</text><text x="70" y="621.25" fill="#19324b" font-size="13" text-anchor="end">4.8</text><path d="M305.0,461V668 M78,564.5H532" stroke="#dce5ef" stroke-width="1"/><text x="305.0" y="694" fill="#19324b" font-size="13" text-anchor="middle">5.5</text><text x="70" y="569.5" fill="#19324b" font-size="13" text-anchor="end">12.5</text><path d="M418.50000000000006,461V668 M78,512.75H532" stroke="#dce5ef" stroke-width="1"/><text x="418.50000000000006" y="694" fill="#19324b" font-size="13" text-anchor="middle">8.3</text><text x="70" y="517.75" fill="#19324b" font-size="13" text-anchor="end">20.2</text><path d="M532.0,461V668 M78,461.0H532" stroke="#dce5ef" stroke-width="1"/><text x="532.0" y="694" fill="#19324b" font-size="13" text-anchor="middle">11.1</text><text x="70" y="466.0" fill="#19324b" font-size="13" text-anchor="end">28.0</text><text x="285.0" y="717" fill="#19324b" font-size="17" text-anchor="middle">X</text><text x="30" y="465" fill="#19324b" font-size="14" text-anchor="start">Y</text><circle cx="121.93548387096774" cy="541.1290322580645" r="5.5" fill="#2864b4" stroke="white" stroke-width="1.4"/><circle cx="162.61648745519713" cy="587.8709677419355" r="5.5" fill="#2864b4" stroke="white" stroke-width="1.4"/><circle cx="203.29749103942652" cy="621.258064516129" r="5.5" fill="#2864b4" stroke="white" stroke-width="1.4"/><circle cx="243.9784946236559" cy="641.2903225806451" r="5.5" fill="#2864b4" stroke="white" stroke-width="1.4"/><circle cx="284.65949820788535" cy="647.9677419354839" r="5.5" fill="#2864b4" stroke="white" stroke-width="1.4"/><circle cx="325.3405017921147" cy="641.2903225806451" r="5.5" fill="#2864b4" stroke="white" stroke-width="1.4"/><circle cx="366.02150537634407" cy="621.258064516129" r="5.5" fill="#2864b4" stroke="white" stroke-width="1.4"/><circle cx="406.7025089605735" cy="587.8709677419355" r="5.5" fill="#2864b4" stroke="white" stroke-width="1.4"/><circle cx="447.3835125448029" cy="541.1290322580645" r="5.5" fill="#2864b4" stroke="white" stroke-width="1.4"/><circle cx="488.06451612903226" cy="481.0322580645161" r="5.5" fill="#2864b4" stroke="white" stroke-width="1.4"/><rect x="570" y="416" width="530" height="310" rx="16" fill="#f5f8fc"/><text x="590" y="444" fill="#19324b" font-size="20" text-anchor="start">Weak linear trend</text><path d="M628.0,461V668 M628,668.0H1082" stroke="#dce5ef" stroke-width="1"/><text x="628.0" y="694" fill="#19324b" font-size="13" text-anchor="middle">-0.1</text><text x="620" y="673.0" fill="#19324b" font-size="13" text-anchor="end">0.0</text><path d="M741.5,461V668 M628,616.25H1082" stroke="#dce5ef" stroke-width="1"/><text x="741.5" y="694" fill="#19324b" font-size="13" text-anchor="middle">2.7</text><text x="620" y="621.25" fill="#19324b" font-size="13" text-anchor="end">2.5</text><path d="M855.0,461V668 M628,564.5H1082" stroke="#dce5ef" stroke-width="1"/><text x="855.0" y="694" fill="#19324b" font-size="13" text-anchor="middle">5.5</text><text x="620" y="569.5" fill="#19324b" font-size="13" text-anchor="end">5.0</text><path d="M968.5,461V668 M628,512.75H1082" stroke="#dce5ef" stroke-width="1"/><text x="968.5" y="694" fill="#19324b" font-size="13" text-anchor="middle">8.3</text><text x="620" y="517.75" fill="#19324b" font-size="13" text-anchor="end">7.5</text><path d="M1082.0,461V668 M628,461.0H1082" stroke="#dce5ef" stroke-width="1"/><text x="1082.0" y="694" fill="#19324b" font-size="13" text-anchor="middle">11.1</text><text x="620" y="466.0" fill="#19324b" font-size="13" text-anchor="end">10.0</text><text x="835.0" y="717" fill="#19324b" font-size="17" text-anchor="middle">X</text><text x="580" y="465" fill="#19324b" font-size="14" text-anchor="start">Y</text><circle cx="671.9354838709678" cy="585.366935483871" r="5.5" fill="#2864b4" stroke="white" stroke-width="1.4"/><circle cx="712.6164874551971" cy="501.89919354838713" r="5.5" fill="#2864b4" stroke="white" stroke-width="1.4"/><circle cx="753.2974910394265" cy="627.1008064516129" r="5.5" fill="#2864b4" stroke="white" stroke-width="1.4"/><circle cx="793.9784946236559" cy="543.633064516129" r="5.5" fill="#2864b4" stroke="white" stroke-width="1.4"/><circle cx="834.6594982078853" cy="564.5" r="5.5" fill="#2864b4" stroke="white" stroke-width="1.4"/><circle cx="875.3405017921148" cy="606.233870967742" r="5.5" fill="#2864b4" stroke="white" stroke-width="1.4"/><circle cx="916.0215053763441" cy="481.0322580645161" r="5.5" fill="#2864b4" stroke="white" stroke-width="1.4"/><circle cx="956.7025089605735" cy="647.9677419354839" r="5.5" fill="#2864b4" stroke="white" stroke-width="1.4"/><circle cx="997.3835125448029" cy="522.766129032258" r="5.5" fill="#2864b4" stroke="white" stroke-width="1.4"/><circle cx="1038.0645161290322" cy="585.366935483871" r="5.5" fill="#2864b4" stroke="white" stroke-width="1.4"/></g></svg>